<svg width="178" height="57" viewBox="0 0 178 57" fill="none" xmlns="http://www.w3.org/2000/svg">
<path d="M33.4715 28.004C35.2715 28.34 36.6395 29.048 37.5755 30.128C38.5355 31.208 39.0155 32.612 39.0155 34.34C39.0155 36.476 38.2355 38.12 36.6755 39.272C35.1155 40.424 32.7995 41 29.7275 41H18.4955V15.8H29.0075C31.7435 15.8 33.8675 16.364 35.3795 17.492C36.9155 18.596 37.6835 20.18 37.6835 22.244C37.6835 23.684 37.2995 24.896 36.5315 25.88C35.7875 26.864 34.7675 27.572 33.4715 28.004ZM20.3315 17.384V27.428H28.9355C31.1435 27.428 32.8355 27.008 34.0115 26.168C35.2115 25.304 35.8115 24.044 35.8115 22.388C35.8115 20.756 35.2115 19.52 34.0115 18.68C32.8355 17.816 31.1435 17.384 28.9355 17.384H20.3315ZM29.7275 39.416C32.1755 39.416 34.0235 38.996 35.2715 38.156C36.5435 37.292 37.1795 35.972 37.1795 34.196C37.1795 32.42 36.5435 31.112 35.2715 30.272C34.0235 29.432 32.1755 29.012 29.7275 29.012H20.3315V39.416H29.7275ZM60.8658 32.036H44.7018C44.7498 33.5 45.1218 34.808 45.8178 35.96C46.5138 37.088 47.4498 37.964 48.6258 38.588C49.8258 39.212 51.1698 39.524 52.6578 39.524C53.8818 39.524 55.0098 39.308 56.0418 38.876C57.0978 38.42 57.9738 37.76 58.6698 36.896L59.7138 38.084C58.8978 39.068 57.8658 39.824 56.6178 40.352C55.3938 40.88 54.0618 41.144 52.6218 41.144C50.7498 41.144 49.0818 40.736 47.6178 39.92C46.1538 39.104 45.0018 37.976 44.1618 36.536C43.3458 35.096 42.9378 33.452 42.9378 31.604C42.9378 29.78 43.3218 28.148 44.0898 26.708C44.8818 25.244 45.9618 24.104 47.3298 23.288C48.6978 22.472 50.2338 22.064 51.9378 22.064C53.6418 22.064 55.1658 22.472 56.5098 23.288C57.8778 24.08 58.9458 25.196 59.7138 26.636C60.5058 28.076 60.9018 29.708 60.9018 31.532L60.8658 32.036ZM51.9378 23.648C50.6178 23.648 49.4298 23.948 48.3738 24.548C47.3178 25.124 46.4658 25.952 45.8178 27.032C45.1938 28.088 44.8338 29.288 44.7378 30.632H59.1378C59.0658 29.288 58.7058 28.088 58.0578 27.032C57.4098 25.976 56.5578 25.148 55.5018 24.548C54.4458 23.948 53.2578 23.648 51.9378 23.648ZM82.3463 32.036H66.1823C66.2303 33.5 66.6023 34.808 67.2983 35.96C67.9943 37.088 68.9303 37.964 70.1063 38.588C71.3063 39.212 72.6503 39.524 74.1383 39.524C75.3623 39.524 76.4903 39.308 77.5223 38.876C78.5783 38.42 79.4543 37.76 80.1503 36.896L81.1943 38.084C80.3783 39.068 79.3463 39.824 78.0983 40.352C76.8743 40.88 75.5423 41.144 74.1023 41.144C72.2303 41.144 70.5623 40.736 69.0983 39.92C67.6343 39.104 66.4823 37.976 65.6423 36.536C64.8263 35.096 64.4183 33.452 64.4183 31.604C64.4183 29.78 64.8023 28.148 65.5703 26.708C66.3623 25.244 67.4423 24.104 68.8103 23.288C70.1783 22.472 71.7143 22.064 73.4183 22.064C75.1223 22.064 76.6463 22.472 77.9903 23.288C79.3583 24.08 80.4263 25.196 81.1943 26.636C81.9863 28.076 82.3823 29.708 82.3823 31.532L82.3463 32.036ZM73.4183 23.648C72.0983 23.648 70.9103 23.948 69.8543 24.548C68.7983 25.124 67.9463 25.952 67.2983 27.032C66.6743 28.088 66.3143 29.288 66.2183 30.632H80.6183C80.5463 29.288 80.1863 28.088 79.5383 27.032C78.8903 25.976 78.0383 25.148 76.9823 24.548C75.9263 23.948 74.7383 23.648 73.4183 23.648ZM95.1508 41.18C93.3028 41.18 91.5388 40.868 89.8588 40.244C88.2028 39.596 86.9068 38.768 85.9708 37.76L86.7988 36.392C87.6868 37.328 88.8748 38.096 90.3628 38.696C91.8748 39.272 93.4588 39.56 95.1148 39.56C97.5148 39.56 99.3268 39.104 100.551 38.192C101.775 37.28 102.387 36.092 102.387 34.628C102.387 33.5 102.063 32.6 101.415 31.928C100.767 31.256 99.9628 30.74 99.0028 30.38C98.0428 30.02 96.7468 29.648 95.1148 29.264C93.2668 28.808 91.7788 28.364 90.6508 27.932C89.5468 27.5 88.5988 26.84 87.8068 25.952C87.0388 25.04 86.6548 23.828 86.6548 22.316C86.6548 21.092 86.9788 19.976 87.6268 18.968C88.2748 17.936 89.2588 17.12 90.5788 16.52C91.9228 15.92 93.5908 15.62 95.5828 15.62C96.9748 15.62 98.3428 15.824 99.6868 16.232C101.031 16.64 102.195 17.192 103.179 17.888L102.495 19.364C101.487 18.668 100.371 18.14 99.1468 17.78C97.9468 17.42 96.7588 17.24 95.5828 17.24C93.2548 17.24 91.4908 17.708 90.2908 18.644C89.0908 19.58 88.4908 20.792 88.4908 22.28C88.4908 23.408 88.8148 24.308 89.4628 24.98C90.1108 25.652 90.9148 26.168 91.8748 26.528C92.8348 26.888 94.1428 27.272 95.7988 27.68C97.6468 28.136 99.1228 28.58 100.227 29.012C101.331 29.444 102.267 30.104 103.035 30.992C103.827 31.856 104.223 33.032 104.223 34.52C104.223 35.744 103.887 36.86 103.215 37.868C102.567 38.876 101.559 39.68 100.191 40.28C98.8228 40.88 97.1428 41.18 95.1508 41.18ZM117.34 41.144C115.516 41.144 113.884 40.736 112.444 39.92C111.004 39.104 109.876 37.976 109.06 36.536C108.244 35.072 107.836 33.428 107.836 31.604C107.836 29.756 108.244 28.112 109.06 26.672C109.876 25.208 111.004 24.08 112.444 23.288C113.884 22.472 115.516 22.064 117.34 22.064C118.852 22.064 120.22 22.364 121.444 22.964C122.692 23.54 123.7 24.392 124.468 25.52L123.136 26.492C122.464 25.556 121.624 24.86 120.616 24.404C119.632 23.924 118.54 23.684 117.34 23.684C115.876 23.684 114.556 24.02 113.38 24.692C112.228 25.34 111.316 26.264 110.644 27.464C109.996 28.664 109.672 30.044 109.672 31.604C109.672 33.164 109.996 34.544 110.644 35.744C111.316 36.944 112.228 37.88 113.38 38.552C114.556 39.2 115.876 39.524 117.34 39.524C118.54 39.524 119.632 39.296 120.616 38.84C121.624 38.36 122.464 37.652 123.136 36.716L124.468 37.688C123.7 38.816 122.692 39.68 121.444 40.28C120.22 40.856 118.852 41.144 117.34 41.144ZM136.193 22.064C138.521 22.064 140.309 22.664 141.557 23.864C142.805 25.04 143.429 26.78 143.429 29.084V41H141.701V37.652C141.101 38.756 140.225 39.62 139.073 40.244C137.921 40.844 136.541 41.144 134.933 41.144C132.845 41.144 131.189 40.652 129.965 39.668C128.765 38.684 128.165 37.388 128.165 35.78C128.165 34.22 128.717 32.96 129.821 32C130.949 31.016 132.737 30.524 135.185 30.524H141.629V29.012C141.629 27.26 141.149 25.928 140.189 25.016C139.253 24.104 137.873 23.648 136.049 23.648C134.801 23.648 133.601 23.864 132.449 24.296C131.321 24.728 130.361 25.304 129.569 26.024L128.669 24.728C129.605 23.888 130.733 23.24 132.053 22.784C133.373 22.304 134.753 22.064 136.193 22.064ZM135.185 39.668C136.745 39.668 138.065 39.308 139.145 38.588C140.249 37.868 141.077 36.824 141.629 35.456V31.928H135.221C133.373 31.928 132.029 32.264 131.189 32.936C130.373 33.608 129.965 34.532 129.965 35.708C129.965 36.932 130.421 37.904 131.333 38.624C132.245 39.32 133.529 39.668 135.185 39.668ZM150.845 14.288H152.645V41H150.845V14.288ZM176.108 32.036H159.944C159.992 33.5 160.364 34.808 161.06 35.96C161.756 37.088 162.692 37.964 163.868 38.588C165.068 39.212 166.412 39.524 167.9 39.524C169.124 39.524 170.252 39.308 171.284 38.876C172.34 38.42 173.216 37.76 173.912 36.896L174.956 38.084C174.14 39.068 173.108 39.824 171.86 40.352C170.636 40.88 169.304 41.144 167.864 41.144C165.992 41.144 164.324 40.736 162.86 39.92C161.396 39.104 160.244 37.976 159.404 36.536C158.588 35.096 158.18 33.452 158.18 31.604C158.18 29.78 158.564 28.148 159.332 26.708C160.124 25.244 161.204 24.104 162.572 23.288C163.94 22.472 165.476 22.064 167.18 22.064C168.884 22.064 170.408 22.472 171.752 23.288C173.12 24.08 174.188 25.196 174.956 26.636C175.748 28.076 176.144 29.708 176.144 31.532L176.108 32.036ZM167.18 23.648C165.86 23.648 164.672 23.948 163.616 24.548C162.56 25.124 161.708 25.952 161.06 27.032C160.436 28.088 160.076 29.288 159.98 30.632H174.38C174.308 29.288 173.948 28.088 173.3 27.032C172.652 25.976 171.8 25.148 170.744 24.548C169.688 23.948 168.5 23.648 167.18 23.648Z" fill="white"/>
<path d="M33.4715 28.004L33.1553 27.0553L29.4881 28.2777L33.288 28.987L33.4715 28.004ZM37.5755 30.128L36.8198 30.783L36.8281 30.7924L37.5755 30.128ZM18.4955 41H17.4955V42H18.4955V41ZM18.4955 15.8V14.8H17.4955V15.8H18.4955ZM35.3795 17.492L34.7816 18.2935L34.7887 18.2988L34.7959 18.304L35.3795 17.492ZM36.5315 25.88L35.7432 25.2647L35.7385 25.2708L35.7339 25.2769L36.5315 25.88ZM20.3315 17.384V16.384H19.3315V17.384H20.3315ZM20.3315 27.428H19.3315V28.428H20.3315V27.428ZM34.0115 26.168L34.5928 26.9817L34.5958 26.9795L34.0115 26.168ZM34.0115 18.68L33.4194 19.4859L33.4287 19.4927L33.4381 19.4992L34.0115 18.68ZM35.2715 38.156L35.8299 38.9856L35.8334 38.9832L35.2715 38.156ZM35.2715 30.272L34.7131 31.1016L34.7205 31.1065L35.2715 30.272ZM20.3315 29.012V28.012H19.3315V29.012H20.3315ZM20.3315 39.416H19.3315V40.416H20.3315V39.416ZM33.288 28.987C34.9291 29.2934 36.0693 29.917 36.8198 30.7829L38.3312 29.4731C37.2097 28.179 35.6139 27.3866 33.655 27.021L33.288 28.987ZM36.8281 30.7924C37.5947 31.6548 38.0155 32.8064 38.0155 34.34H40.0155C40.0155 32.4176 39.4763 30.7612 38.3229 29.4636L36.8281 30.7924ZM38.0155 34.34C38.0155 36.1959 37.3576 37.5252 36.0815 38.4676L37.2696 40.0764C39.1134 38.7148 40.0155 36.7561 40.0155 34.34H38.0155ZM36.0815 38.4676C34.7678 39.4376 32.7016 40 29.7275 40V42C32.8974 42 35.4632 41.4104 37.2696 40.0764L36.0815 38.4676ZM29.7275 40H18.4955V42H29.7275V40ZM19.4955 41V15.8H17.4955V41H19.4955ZM18.4955 16.8H29.0075V14.8H18.4955V16.8ZM29.0075 16.8C31.6214 16.8 33.5046 17.3408 34.7816 18.2935L35.9775 16.6905C34.2305 15.3872 31.8656 14.8 29.0075 14.8V16.8ZM34.7959 18.304C36.0439 19.201 36.6835 20.4677 36.6835 22.244H38.6835C38.6835 19.8923 37.7871 17.991 35.9632 16.68L34.7959 18.304ZM36.6835 22.244C36.6835 23.4969 36.3535 24.4828 35.7432 25.2647L37.3198 26.4953C38.2455 25.3092 38.6835 23.8711 38.6835 22.244H36.6835ZM35.7339 25.2769C35.1247 26.0825 34.2811 26.6801 33.1553 27.0553L33.7877 28.9527C35.254 28.4639 36.4503 27.6455 37.3292 26.4831L35.7339 25.2769ZM19.3315 17.384V27.428H21.3315V17.384H19.3315ZM20.3315 28.428H28.9355V26.428H20.3315V28.428ZM28.9355 28.428C31.2487 28.428 33.179 27.9915 34.5928 26.9817L33.4303 25.3543C32.492 26.0245 31.0383 26.428 28.9355 26.428V28.428ZM34.5958 26.9795C36.091 25.903 36.8115 24.321 36.8115 22.388H34.8115C34.8115 23.767 34.332 24.705 33.4272 25.3565L34.5958 26.9795ZM36.8115 22.388C36.8115 20.4731 36.086 18.9115 34.585 17.8608L33.4381 19.4992C34.3371 20.1285 34.8115 21.0389 34.8115 22.388H36.8115ZM34.6036 17.8741C33.1881 16.8342 31.2532 16.384 28.9355 16.384V18.384C31.0338 18.384 32.4829 18.7978 33.4194 19.4859L34.6036 17.8741ZM28.9355 16.384H20.3315V18.384H28.9355V16.384ZM29.7275 40.416C32.2611 40.416 34.3428 39.9865 35.8299 38.9856L34.7131 37.3264C33.7042 38.0055 32.09 38.416 29.7275 38.416V40.416ZM35.8334 38.9832C37.4252 37.902 38.1795 36.2438 38.1795 34.196H36.1795C36.1795 35.7002 35.6618 36.682 34.7096 37.3288L35.8334 38.9832ZM38.1795 34.196C38.1795 32.1485 37.4247 30.4955 35.8226 29.4375L34.7205 31.1065C35.6623 31.7285 36.1795 32.6915 36.1795 34.196H38.1795ZM35.8299 29.4424C34.3428 28.4415 32.2611 28.012 29.7275 28.012V30.012C32.09 30.012 33.7042 30.4225 34.7131 31.1016L35.8299 29.4424ZM29.7275 28.012H20.3315V30.012H29.7275V28.012ZM19.3315 29.012V39.416H21.3315V29.012H19.3315ZM20.3315 40.416H29.7275V38.416H20.3315V40.416ZM60.8658 32.036V33.036H61.7969L61.8633 32.1072L60.8658 32.036ZM44.7018 32.036V31.036H43.6685L43.7024 32.0688L44.7018 32.036ZM45.8178 35.96L44.9619 36.4771L44.9668 36.4851L45.8178 35.96ZM48.6258 38.588L48.1571 39.4714L48.1645 39.4752L48.6258 38.588ZM56.0418 38.876L56.428 39.7985L56.4383 39.7941L56.0418 38.876ZM58.6698 36.896L59.421 36.2359L58.6366 35.3432L57.8911 36.2687L58.6698 36.896ZM59.7138 38.084L60.4836 38.7223L61.0286 38.0652L60.465 37.4239L59.7138 38.084ZM56.6178 40.352L56.2282 39.431L56.2217 39.4338L56.6178 40.352ZM47.6178 39.92L47.131 40.7935L47.131 40.7935L47.6178 39.92ZM44.1618 36.536L43.2917 37.0291L43.298 37.0399L44.1618 36.536ZM44.0898 26.708L43.2103 26.2322L43.2075 26.2374L44.0898 26.708ZM47.3298 23.288L47.8421 24.1468L47.8421 24.1468L47.3298 23.288ZM56.5098 23.288L55.9909 24.1428L55.9998 24.1482L56.0088 24.1534L56.5098 23.288ZM59.7138 26.636L58.8314 27.1066L58.8376 27.1179L59.7138 26.636ZM60.9018 31.532L61.8993 31.6032L61.9018 31.5677V31.532H60.9018ZM48.3738 24.548L48.8527 25.4259L48.8603 25.4217L48.8678 25.4175L48.3738 24.548ZM45.8178 27.032L44.9603 26.5175L44.9569 26.5233L45.8178 27.032ZM44.7378 30.632L43.7404 30.5608L43.6639 31.632H44.7378V30.632ZM59.1378 30.632V31.632H60.1928L60.1364 30.5785L59.1378 30.632ZM58.0578 27.032L57.2055 27.555L57.2055 27.555L58.0578 27.032ZM55.5018 24.548L55.9958 23.6785L55.9958 23.6785L55.5018 24.548ZM60.8658 31.036H44.7018V33.036H60.8658V31.036ZM43.7024 32.0688C43.7555 33.6883 44.1697 35.1659 44.9619 36.4771L46.6737 35.4429C46.074 34.4501 45.7442 33.3117 45.7013 32.0032L43.7024 32.0688ZM44.9668 36.4851C45.7566 37.7651 46.8248 38.7644 48.1571 39.4713L49.0945 37.7047C48.0748 37.1636 47.2711 36.4109 46.6689 35.4349L44.9668 36.4851ZM48.1645 39.4752C49.5208 40.1805 51.0256 40.524 52.6578 40.524V38.524C51.3141 38.524 50.1308 38.2435 49.0872 37.7008L48.1645 39.4752ZM52.6578 40.524C54.0019 40.524 55.2626 40.2863 56.428 39.7984L55.6557 37.9536C54.7571 38.3297 53.7618 38.524 52.6578 38.524V40.524ZM56.4383 39.7941C57.6377 39.2761 58.6468 38.5186 59.4486 37.5233L57.8911 36.2687C57.3008 37.0014 56.5579 37.5639 55.6454 37.9579L56.4383 39.7941ZM57.9187 37.5561L58.9627 38.7441L60.465 37.4239L59.421 36.2359L57.9187 37.5561ZM58.9441 37.4457C58.2364 38.299 57.3378 38.9616 56.2282 39.431L57.0075 41.273C58.3939 40.6864 59.5592 39.837 60.4836 38.7223L58.9441 37.4457ZM56.2217 39.4338C55.1326 39.9036 53.9367 40.144 52.6218 40.144V42.144C54.187 42.144 55.6551 41.8564 57.0139 41.2702L56.2217 39.4338ZM52.6218 40.144C50.8999 40.144 49.403 39.7702 48.1047 39.0465L47.131 40.7935C48.7606 41.7018 50.5997 42.144 52.6218 42.144V40.144ZM48.1047 39.0465C46.7963 38.3172 45.7748 37.3165 45.0256 36.0321L43.298 37.0399C44.2288 38.6355 45.5114 39.8908 47.131 40.7935L48.1047 39.0465ZM45.0319 36.043C44.3106 34.7703 43.9378 33.2998 43.9378 31.604H41.9378C41.9378 33.6042 42.381 35.4217 43.2918 37.029L45.0319 36.043ZM43.9378 31.604C43.9378 29.9245 44.2902 28.4574 44.9722 27.1786L43.2075 26.2374C42.3535 27.8386 41.9378 29.6355 41.9378 31.604H43.9378ZM44.9694 27.1838C45.6797 25.8708 46.6359 24.8663 47.8421 24.1468L46.8176 22.4292C45.2878 23.3417 44.084 24.6172 43.2103 26.2322L44.9694 27.1838ZM47.8421 24.1468C49.0444 23.4297 50.4011 23.064 51.9378 23.064V21.064C50.0665 21.064 48.3513 21.5143 46.8175 22.4292L47.8421 24.1468ZM51.9378 23.064C53.4747 23.064 54.8163 23.4297 55.9909 24.1428L57.0288 22.4332C55.5153 21.5143 53.809 21.064 51.9378 21.064V23.064ZM56.0088 24.1534C57.2099 24.8488 58.1483 25.8256 58.8315 27.1066L60.5962 26.1654C59.7434 24.5664 58.5457 23.3112 57.0109 22.4226L56.0088 24.1534ZM58.8376 27.1179C59.5398 28.3946 59.9018 29.8576 59.9018 31.532H61.9018C61.9018 29.5584 61.4719 27.7574 60.59 26.1541L58.8376 27.1179ZM59.9044 31.4608L59.8684 31.9648L61.8633 32.1072L61.8993 31.6032L59.9044 31.4608ZM51.9378 22.648C50.4601 22.648 49.0993 22.9856 47.8798 23.6785L48.8678 25.4175C49.7603 24.9104 50.7755 24.648 51.9378 24.648V22.648ZM47.895 23.6701C46.6752 24.3355 45.6954 25.2923 44.9603 26.5175L46.6753 27.5465C47.2362 26.6117 47.9605 25.9125 48.8527 25.4259L47.895 23.6701ZM44.9569 26.5233C44.2466 27.7253 43.8463 29.0778 43.7404 30.5608L45.7353 30.7032C45.8214 29.4982 46.141 28.4507 46.6788 27.5407L44.9569 26.5233ZM44.7378 31.632H59.1378V29.632H44.7378V31.632ZM60.1364 30.5785C60.0563 29.083 59.6526 27.7189 58.9102 26.509L57.2055 27.555C57.759 28.4571 58.0754 29.493 58.1393 30.6855L60.1364 30.5785ZM58.9102 26.509C58.1757 25.3121 57.2017 24.3637 55.9958 23.6785L55.0078 25.4175C55.914 25.9323 56.6439 26.6399 57.2055 27.555L58.9102 26.509ZM55.9958 23.6785C54.7763 22.9856 53.4155 22.648 51.9378 22.648V24.648C53.1001 24.648 54.1153 24.9104 55.0078 25.4175L55.9958 23.6785ZM82.3463 32.036V33.036H83.2774L83.3438 32.1072L82.3463 32.036ZM66.1823 32.036V31.036H65.149L65.1828 32.0688L66.1823 32.036ZM67.2983 35.96L66.4423 36.4771L66.4473 36.4851L67.2983 35.96ZM70.1063 38.588L69.6376 39.4714L69.6449 39.4752L70.1063 38.588ZM77.5223 38.876L77.9085 39.7985L77.9187 39.7941L77.5223 38.876ZM80.1503 36.896L80.9015 36.2359L80.117 35.3432L79.3715 36.2687L80.1503 36.896ZM81.1943 38.084L81.9641 38.7223L82.509 38.0652L81.9455 37.4239L81.1943 38.084ZM78.0983 40.352L77.7086 39.431L77.7022 39.4338L78.0983 40.352ZM69.0983 39.92L68.6114 40.7935L68.6114 40.7935L69.0983 39.92ZM65.6423 36.536L64.7722 37.0291L64.7785 37.0399L65.6423 36.536ZM65.5703 26.708L64.6907 26.2322L64.6879 26.2374L65.5703 26.708ZM68.8103 23.288L69.3226 24.1468L69.3226 24.1468L68.8103 23.288ZM77.9903 23.288L77.4713 24.1428L77.4802 24.1482L77.4893 24.1534L77.9903 23.288ZM81.1943 26.636L80.3119 27.1066L80.3181 27.1179L81.1943 26.636ZM82.3823 31.532L83.3798 31.6032L83.3823 31.5677V31.532H82.3823ZM69.8543 24.548L70.3331 25.4259L70.3408 25.4217L70.3483 25.4175L69.8543 24.548ZM67.2983 27.032L66.4408 26.5175L66.4374 26.5233L67.2983 27.032ZM66.2183 30.632L65.2208 30.5608L65.1443 31.632H66.2183V30.632ZM80.6183 30.632V31.632H81.6733L81.6169 30.5785L80.6183 30.632ZM79.5383 27.032L78.686 27.555L78.686 27.555L79.5383 27.032ZM76.9823 24.548L77.4763 23.6785L77.4763 23.6785L76.9823 24.548ZM82.3463 31.036H66.1823V33.036H82.3463V31.036ZM65.1828 32.0688C65.2359 33.6883 65.6502 35.1659 66.4424 36.4771L68.1542 35.4429C67.5544 34.4501 67.2247 33.3117 67.1818 32.0032L65.1828 32.0688ZM66.4473 36.4851C67.237 37.7651 68.3053 38.7644 69.6376 39.4713L70.575 37.7047C69.5553 37.1636 68.7516 36.4109 68.1493 35.4349L66.4473 36.4851ZM69.6449 39.4752C71.0013 40.1805 72.5061 40.524 74.1383 40.524V38.524C72.7945 38.524 71.6113 38.2435 70.5677 37.7008L69.6449 39.4752ZM74.1383 40.524C75.4823 40.524 76.7431 40.2863 77.9084 39.7984L77.1362 37.9536C76.2375 38.3297 75.2423 38.524 74.1383 38.524V40.524ZM77.9187 39.7941C79.1182 39.2761 80.1273 38.5186 80.9291 37.5233L79.3715 36.2687C78.7813 37.0014 78.0384 37.5639 77.1259 37.9579L77.9187 39.7941ZM79.3991 37.5561L80.4431 38.7441L81.9455 37.4239L80.9015 36.2359L79.3991 37.5561ZM80.4245 37.4457C79.7169 38.299 78.8183 38.9616 77.7087 39.431L78.4879 41.273C79.8743 40.6864 81.0397 39.837 81.9641 38.7223L80.4245 37.4457ZM77.7022 39.4338C76.6131 39.9036 75.4171 40.144 74.1023 40.144V42.144C75.6675 42.144 77.1355 41.8564 78.4944 41.2702L77.7022 39.4338ZM74.1023 40.144C72.3804 40.144 70.8835 39.7702 69.5852 39.0465L68.6114 40.7935C70.2411 41.7018 72.0802 42.144 74.1023 42.144V40.144ZM69.5852 39.0465C68.2767 38.3172 67.2553 37.3165 66.5061 36.0321L64.7785 37.0399C65.7093 38.6355 66.9918 39.8908 68.6114 40.7935L69.5852 39.0465ZM66.5123 36.043C65.7911 34.7703 65.4183 33.2998 65.4183 31.604H63.4183C63.4183 33.6042 63.8615 35.4217 64.7723 37.029L66.5123 36.043ZM65.4183 31.604C65.4183 29.9245 65.7706 28.4574 66.4526 27.1786L64.6879 26.2374C63.834 27.8386 63.4183 29.6355 63.4183 31.604H65.4183ZM66.4498 27.1838C67.1602 25.8708 68.1164 24.8663 69.3226 24.1468L68.298 22.4292C66.7682 23.3417 65.5644 24.6172 64.6908 26.2322L66.4498 27.1838ZM69.3226 24.1468C70.5248 23.4297 71.8816 23.064 73.4183 23.064V21.064C71.547 21.064 69.8318 21.5143 68.298 22.4292L69.3226 24.1468ZM73.4183 23.064C74.9552 23.064 76.2968 23.4297 77.4713 24.1428L78.5093 22.4332C76.9958 21.5143 75.2894 21.064 73.4183 21.064V23.064ZM77.4893 24.1534C78.6904 24.8488 79.6287 25.8256 80.3119 27.1066L82.0767 26.1654C81.2239 24.5664 80.0262 23.3112 78.4913 22.4226L77.4893 24.1534ZM80.3181 27.1179C81.0202 28.3946 81.3823 29.8576 81.3823 31.532H83.3823C83.3823 29.5584 82.9524 27.7574 82.0705 26.1541L80.3181 27.1179ZM81.3848 31.4608L81.3488 31.9648L83.3438 32.1072L83.3798 31.6032L81.3848 31.4608ZM73.4183 22.648C71.9406 22.648 70.5798 22.9856 69.3603 23.6785L70.3483 25.4175C71.2408 24.9104 72.256 24.648 73.4183 24.648V22.648ZM69.3754 23.6701C68.1556 24.3355 67.1759 25.2923 66.4408 26.5175L68.1558 27.5465C68.7167 26.6117 69.441 25.9125 70.3331 25.4259L69.3754 23.6701ZM66.4374 26.5233C65.7271 27.7253 65.3268 29.0778 65.2208 30.5608L67.2158 30.7032C67.3018 29.4982 67.6215 28.4507 68.1592 27.5407L66.4374 26.5233ZM66.2183 31.632H80.6183V29.632H66.2183V31.632ZM81.6169 30.5785C81.5367 29.083 81.1331 27.7189 80.3906 26.509L78.686 27.555C79.2395 28.4571 79.5558 29.493 79.6197 30.6855L81.6169 30.5785ZM80.3906 26.509C79.6562 25.3121 78.6821 24.3637 77.4763 23.6785L76.4883 25.4175C77.3945 25.9323 78.1244 26.6399 78.686 27.555L80.3906 26.509ZM77.4763 23.6785C76.2568 22.9856 74.896 22.648 73.4183 22.648V24.648C74.5806 24.648 75.5958 24.9104 76.4883 25.4175L77.4763 23.6785ZM89.8588 40.244L89.4944 41.1752L89.5024 41.1784L89.5106 41.1814L89.8588 40.244ZM85.9708 37.76L85.1153 37.2422L84.7246 37.8876L85.238 38.4405L85.9708 37.76ZM86.7988 36.392L87.5242 35.7037L86.622 34.7528L85.9433 35.8742L86.7988 36.392ZM90.3628 38.696L89.9888 39.6234L89.9978 39.6271L90.0068 39.6305L90.3628 38.696ZM100.551 38.192L101.148 38.9939L101.148 38.9939L100.551 38.192ZM99.0028 30.38L99.3539 29.4437L99.3539 29.4437L99.0028 30.38ZM95.1148 29.264L94.8752 30.2349L94.8857 30.2374L95.1148 29.264ZM90.6508 27.932L90.2864 28.8633L90.2931 28.8659L90.6508 27.932ZM87.8068 25.952L87.0419 26.5961L87.051 26.607L87.0605 26.6176L87.8068 25.952ZM87.6268 18.968L88.468 19.5088L88.4737 19.4998L87.6268 18.968ZM90.5788 16.52L90.1711 15.6068L90.165 15.6096L90.5788 16.52ZM99.6868 16.232L99.3963 17.1889L99.3963 17.1889L99.6868 16.232ZM103.179 17.888L104.086 18.3085L104.436 17.5526L103.756 17.0716L103.179 17.888ZM102.495 19.364L101.927 20.1869L102.903 20.8612L103.402 19.7845L102.495 19.364ZM99.1468 17.78L98.8594 18.7378L98.8646 18.7394L99.1468 17.78ZM90.2908 18.644L89.6757 17.8555L89.6757 17.8555L90.2908 18.644ZM89.4628 24.98L88.7429 25.6741L88.7429 25.6741L89.4628 24.98ZM91.8748 26.528L91.5236 27.4643L91.5236 27.4643L91.8748 26.528ZM95.7988 27.68L96.0383 26.7091L96.038 26.709L95.7988 27.68ZM100.227 29.012L99.8624 29.9432L99.8624 29.9432L100.227 29.012ZM103.035 30.992L102.278 31.6462L102.288 31.6571L102.298 31.6677L103.035 30.992ZM103.215 37.868L102.383 37.3133L102.378 37.3202L102.374 37.3272L103.215 37.868ZM100.191 40.28L99.7891 39.3642L99.7891 39.3642L100.191 40.28ZM95.1508 40.18C93.4179 40.18 91.7721 39.8879 90.207 39.3066L89.5106 41.1814C91.3055 41.8481 93.1877 42.18 95.1508 42.18V40.18ZM90.2232 39.3128C88.6677 38.7041 87.5118 37.9499 86.7036 37.0795L85.238 38.4405C86.3018 39.5861 87.7378 40.4879 89.4944 41.1752L90.2232 39.3128ZM86.8263 38.2778L87.6543 36.9098L85.9433 35.8742L85.1153 37.2422L86.8263 38.2778ZM86.0733 37.0803C87.0809 38.1424 88.3993 38.9825 89.9888 39.6234L90.7367 37.7686C89.3502 37.2095 88.2926 36.5136 87.5242 35.7037L86.0733 37.0803ZM90.0068 39.6305C91.6352 40.2508 93.34 40.56 95.1148 40.56V38.56C93.5775 38.56 92.1144 38.2932 90.7188 37.7615L90.0068 39.6305ZM95.1148 40.56C97.6152 40.56 99.6779 40.0894 101.148 38.9939L99.9533 37.3901C98.9756 38.1186 97.4143 38.56 95.1148 38.56V40.56ZM101.148 38.9939C102.613 37.9026 103.387 36.4233 103.387 34.628H101.387C101.387 35.7607 100.937 36.6574 99.9533 37.3901L101.148 38.9939ZM103.387 34.628C103.387 33.2984 102.999 32.1298 102.135 31.2339L100.695 32.6221C101.127 33.0702 101.387 33.7016 101.387 34.628H103.387ZM102.135 31.2339C101.373 30.4445 100.439 29.8507 99.3539 29.4437L98.6516 31.3163C99.4861 31.6293 100.16 32.0675 100.695 32.6221L102.135 31.2339ZM99.3539 29.4437C98.3371 29.0624 96.9948 28.6791 95.3438 28.2906L94.8857 30.2374C96.4987 30.6169 97.7485 30.9776 98.6516 31.3163L99.3539 29.4437ZM95.3543 28.2931C93.5264 27.8421 92.0825 27.4095 91.0084 26.9981L90.2931 28.8659C91.475 29.3185 93.0071 29.7739 94.8752 30.2349L95.3543 28.2931ZM91.0152 27.0008C90.0581 26.6263 89.2408 26.0575 88.5531 25.2864L87.0605 26.6176C87.9567 27.6225 89.0354 28.3737 90.2864 28.8632L91.0152 27.0008ZM88.5717 25.3079C87.9926 24.6202 87.6548 23.6571 87.6548 22.316H85.6548C85.6548 23.9989 86.0849 25.4598 87.0419 26.5961L88.5717 25.3079ZM87.6548 22.316C87.6548 21.2794 87.926 20.3518 88.4679 19.5088L86.7856 18.4272C86.0316 19.6002 85.6548 20.9046 85.6548 22.316H87.6548ZM88.4737 19.4998C88.9991 18.663 89.8165 17.965 90.9926 17.4304L90.165 15.6096C88.7011 16.275 87.5505 17.209 86.7799 18.4362L88.4737 19.4998ZM90.9864 17.4331C92.1653 16.9068 93.6844 16.62 95.5828 16.62V14.62C93.4972 14.62 91.6802 14.9332 90.1711 15.6069L90.9864 17.4331ZM95.5828 16.62C96.8754 16.62 98.1456 16.8092 99.3963 17.1889L99.9772 15.2751C98.5399 14.8388 97.0741 14.62 95.5828 14.62V16.62ZM99.3963 17.1889C100.654 17.5708 101.718 18.0796 102.601 18.7044L103.756 17.0716C102.672 16.3044 101.407 15.7092 99.9772 15.2751L99.3963 17.1889ZM102.271 17.4675L101.587 18.9435L103.402 19.7845L104.086 18.3085L102.271 17.4675ZM103.063 18.5411C101.964 17.7822 100.751 17.2094 99.4289 16.8206L98.8646 18.7394C99.9909 19.0706 101.01 19.5538 101.927 20.1869L103.063 18.5411ZM99.4341 16.8222C98.147 16.436 96.8622 16.24 95.5828 16.24V18.24C96.6553 18.24 97.7466 18.404 98.8594 18.7378L99.4341 16.8222ZM95.5828 16.24C93.1438 16.24 91.1229 16.7267 89.6757 17.8555L90.9058 19.4325C91.8586 18.6893 93.3658 18.24 95.5828 18.24V16.24ZM89.6757 17.8555C88.2393 18.9759 87.4908 20.4758 87.4908 22.28H89.4908C89.4908 21.1082 89.9423 20.184 90.9058 19.4325L89.6757 17.8555ZM87.4908 22.28C87.4908 23.6096 87.879 24.7782 88.7429 25.6741L90.1826 24.2859C89.7505 23.8378 89.4908 23.2064 89.4908 22.28H87.4908ZM88.7429 25.6741C89.5041 26.4635 90.4381 27.0573 91.5236 27.4643L92.2259 25.5917C91.3914 25.2787 90.7175 24.8405 90.1826 24.2859L88.7429 25.6741ZM91.5236 27.4643C92.5362 27.844 93.8869 28.2389 95.5595 28.651L96.038 26.709C94.3986 26.3051 93.1333 25.9319 92.2259 25.5917L91.5236 27.4643ZM95.5592 28.6509C97.3869 29.1019 98.8158 29.5337 99.8624 29.9432L100.591 28.0808C99.4297 27.6263 97.9067 27.1701 96.0383 26.7091L95.5592 28.6509ZM99.8624 29.9432C100.817 30.3167 101.618 30.8822 102.278 31.6462L103.791 30.3378C102.916 29.3258 101.845 28.5713 100.591 28.0808L99.8624 29.9432ZM102.298 31.6677C102.879 32.3015 103.223 33.2123 103.223 34.52H105.223C105.223 32.8517 104.775 31.4105 103.772 30.3163L102.298 31.6677ZM103.223 34.52C103.223 35.5488 102.944 36.4714 102.383 37.3133L104.047 38.4227C104.83 37.2486 105.223 35.9392 105.223 34.52H103.223ZM102.374 37.3272C101.856 38.1331 101.021 38.8237 99.7891 39.3642L100.592 41.1958C102.096 40.5363 103.278 39.6189 104.056 38.4088L102.374 37.3272ZM99.7891 39.3642C98.5824 39.8935 97.0482 40.18 95.1508 40.18V42.18C97.2373 42.18 99.0631 41.8665 100.592 41.1958L99.7891 39.3642ZM112.444 39.92L111.951 40.79L111.951 40.79L112.444 39.92ZM109.06 36.536L108.187 37.0229L108.19 37.029L109.06 36.536ZM109.06 26.672L109.93 27.165L109.934 27.1589L109.06 26.672ZM112.444 23.288L112.926 24.1643L112.937 24.158L112.444 23.288ZM121.444 22.964L121.004 23.8619L121.015 23.8671L121.025 23.872L121.444 22.964ZM124.468 25.52L125.058 26.3278L125.84 25.7573L125.295 24.9572L124.468 25.52ZM123.136 26.492L122.324 27.0752L122.912 27.8938L123.726 27.2998L123.136 26.492ZM120.616 24.404L120.178 25.3028L120.191 25.3091L120.204 25.3151L120.616 24.404ZM113.38 24.692L113.871 25.5636L113.876 25.5602L113.38 24.692ZM110.644 27.464L109.772 26.9754L109.768 26.9821L109.764 26.9889L110.644 27.464ZM110.644 35.744L109.764 36.2191L109.768 36.2259L109.772 36.2326L110.644 35.744ZM113.38 38.552L112.876 39.4158L112.887 39.4219L112.898 39.4278L113.38 38.552ZM120.616 38.84L121.037 39.7474L121.046 39.7429L120.616 38.84ZM123.136 36.716L123.726 35.9082L122.912 35.3142L122.324 36.1328L123.136 36.716ZM124.468 37.688L125.295 38.2508L125.84 37.4507L125.058 36.8802L124.468 37.688ZM121.444 40.28L121.87 41.1848L121.878 41.1813L121.444 40.28ZM117.34 40.144C115.671 40.144 114.212 39.7723 112.937 39.05L111.951 40.79C113.557 41.6997 115.362 42.144 117.34 42.144V40.144ZM112.937 39.05C111.655 38.3232 110.657 37.3255 109.93 36.043L108.19 37.029C109.095 38.6265 110.354 39.8848 111.951 40.79L112.937 39.05ZM109.934 36.0491C109.208 34.7469 108.836 33.273 108.836 31.604H106.836C106.836 33.583 107.281 35.3971 108.187 37.0229L109.934 36.0491ZM108.836 31.604C108.836 29.9082 109.209 28.4377 109.93 27.165L108.19 26.179C107.279 27.7863 106.836 29.6038 106.836 31.604H108.836ZM109.934 27.1589C110.66 25.8554 111.654 24.8639 112.926 24.1642L111.962 22.4118C110.354 23.2961 109.092 24.5606 108.187 26.1851L109.934 27.1589ZM112.937 24.158C114.212 23.4357 115.671 23.064 117.34 23.064V21.064C115.362 21.064 113.557 21.5083 111.951 22.418L112.937 24.158ZM117.34 23.064C118.717 23.064 119.931 23.3361 121.004 23.8619L121.884 22.0661C120.509 21.3919 118.988 21.064 117.34 21.064V23.064ZM121.025 23.872C122.11 24.3726 122.976 25.1058 123.642 26.0828L125.295 24.9572C124.424 23.6782 123.275 22.7074 121.863 22.056L121.025 23.872ZM123.879 24.7122L122.547 25.6842L123.726 27.2998L125.058 26.3278L123.879 24.7122ZM123.949 25.9088C123.179 24.8364 122.203 24.0243 121.028 23.4929L120.204 25.3151C121.045 25.6957 121.75 26.2755 122.324 27.0752L123.949 25.9088ZM121.055 23.5052C119.921 22.9524 118.677 22.684 117.34 22.684V24.684C118.403 24.684 119.343 24.8956 120.178 25.3028L121.055 23.5052ZM117.34 22.684C115.717 22.684 114.223 23.0585 112.884 23.8238L113.876 25.5602C114.889 24.9815 116.036 24.684 117.34 24.684V22.684ZM112.89 23.8204C111.571 24.5623 110.53 25.6219 109.772 26.9754L111.517 27.9526C112.103 26.9061 112.885 26.1177 113.871 25.5636L112.89 23.8204ZM109.764 26.9889C109.027 28.3547 108.672 29.9022 108.672 31.604H110.672C110.672 30.1858 110.966 28.9733 111.524 27.9391L109.764 26.9889ZM108.672 31.604C108.672 33.3058 109.027 34.8533 109.764 36.2191L111.524 35.2689C110.966 34.2347 110.672 33.0222 110.672 31.604H108.672ZM109.772 36.2326C110.528 37.5832 111.565 38.651 112.876 39.4158L113.884 37.6882C112.891 37.109 112.104 36.3048 111.517 35.2554L109.772 36.2326ZM112.898 39.4278C114.235 40.1645 115.723 40.524 117.34 40.524V38.524C116.029 38.524 114.878 38.2355 113.863 37.6762L112.898 39.4278ZM117.34 40.524C118.67 40.524 119.908 40.2706 121.037 39.7473L120.196 37.9327C119.357 38.3214 118.411 38.524 117.34 38.524V40.524ZM121.046 39.7429C122.212 39.1879 123.181 38.3677 123.949 37.2992L122.324 36.1328C121.747 36.9363 121.037 37.5321 120.186 37.9371L121.046 39.7429ZM122.547 37.5238L123.879 38.4958L125.058 36.8802L123.726 35.9082L122.547 37.5238ZM123.642 37.1252C122.974 38.1055 122.103 38.8538 121.011 39.3787L121.878 41.1813C123.282 40.5062 124.426 39.5265 125.295 38.2508L123.642 37.1252ZM121.018 39.3752C119.943 39.8815 118.723 40.144 117.34 40.144V42.144C118.982 42.144 120.498 41.8305 121.87 41.1848L121.018 39.3752ZM141.557 23.864L140.864 24.5849L140.871 24.5918L141.557 23.864ZM143.429 41V42H144.429V41H143.429ZM141.701 41H140.701V42H141.701V41ZM141.701 37.652H142.701L140.822 37.1745L141.701 37.652ZM139.073 40.244L139.535 41.1309L139.542 41.1272L139.549 41.1233L139.073 40.244ZM129.965 39.668L129.331 40.4413L129.338 40.4474L129.965 39.668ZM129.821 32L130.477 32.7546L130.478 32.7536L129.821 32ZM141.629 30.524V31.524H142.629V30.524H141.629ZM140.189 25.016L139.491 25.7323L139.5 25.741L140.189 25.016ZM132.449 24.296L132.098 23.3596L132.091 23.3621L132.449 24.296ZM129.569 26.024L128.748 26.5944L129.398 27.5309L130.242 26.7639L129.569 26.024ZM128.669 24.728L128.001 23.9838L127.344 24.5733L127.848 25.2984L128.669 24.728ZM132.053 22.784L132.38 23.7292L132.387 23.7266L132.395 23.7238L132.053 22.784ZM139.145 38.588L138.599 37.7503L138.59 37.7559L139.145 38.588ZM141.629 35.456L142.556 35.8302L142.629 35.6501V35.456H141.629ZM141.629 31.928H142.629V30.928H141.629V31.928ZM131.189 32.936L130.564 32.1551L130.559 32.1596L130.553 32.1641L131.189 32.936ZM131.333 38.624L130.713 39.4089L130.72 39.414L130.726 39.419L131.333 38.624ZM136.193 23.064C138.354 23.064 139.859 23.6185 140.864 24.5848L142.25 23.1432C140.759 21.7095 138.688 21.064 136.193 21.064V23.064ZM140.871 24.5918C141.857 25.5205 142.429 26.9571 142.429 29.084H144.429C144.429 26.6029 143.753 24.5595 142.243 23.1362L140.871 24.5918ZM142.429 29.084V41H144.429V29.084H142.429ZM143.429 40H141.701V42H143.429V40ZM142.701 41V37.652H140.701V41H142.701ZM140.822 37.1745C140.319 38.101 139.586 38.8287 138.597 39.3647L139.549 41.1233C140.864 40.4113 141.883 39.411 142.58 38.1295L140.822 37.1745ZM138.611 39.3571C137.632 39.8672 136.418 40.144 134.933 40.144V42.144C136.664 42.144 138.21 41.8208 139.535 41.1309L138.611 39.3571ZM134.933 40.144C132.998 40.144 131.587 39.6889 130.592 38.8886L129.338 40.4474C130.791 41.6151 132.692 42.144 134.933 42.144V40.144ZM130.599 38.8947C129.64 38.1085 129.165 37.101 129.165 35.78H127.165C127.165 37.675 127.89 39.2595 129.331 40.4413L130.599 38.8947ZM129.165 35.78C129.165 34.4877 129.608 33.5109 130.477 32.7546L129.165 31.2454C127.827 32.4091 127.165 33.9523 127.165 35.78H129.165ZM130.478 32.7536C131.339 32.0026 132.835 31.524 135.185 31.524V29.524C132.639 29.524 130.559 30.0294 129.164 31.2464L130.478 32.7536ZM135.185 31.524H141.629V29.524H135.185V31.524ZM142.629 30.524V29.012H140.629V30.524H142.629ZM142.629 29.012C142.629 27.0784 142.095 25.4472 140.878 24.291L139.5 25.741C140.203 26.4088 140.629 27.4416 140.629 29.012H142.629ZM140.887 24.2998C139.701 23.1441 138.029 22.648 136.049 22.648V24.648C137.717 24.648 138.805 25.0639 139.491 25.7322L140.887 24.2998ZM136.049 22.648C134.683 22.648 133.364 22.885 132.098 23.3597L132.8 25.2323C133.838 24.843 134.919 24.648 136.049 24.648V22.648ZM132.091 23.3621C130.862 23.8329 129.791 24.4703 128.896 25.2841L130.242 26.7639C130.931 26.1377 131.78 25.6231 132.807 25.2299L132.091 23.3621ZM130.39 25.4536L129.49 24.1576L127.848 25.2984L128.748 26.5944L130.39 25.4536ZM129.337 25.4722C130.163 24.7307 131.172 24.1465 132.38 23.7292L131.726 21.8388C130.294 22.3335 129.047 23.0453 128.001 23.9838L129.337 25.4722ZM132.395 23.7238C133.602 23.2846 134.867 23.064 136.193 23.064V21.064C134.639 21.064 133.144 21.3234 131.711 21.8442L132.395 23.7238ZM135.185 40.668C136.902 40.668 138.425 40.27 139.7 39.4201L138.59 37.7559C137.705 38.346 136.588 38.668 135.185 38.668V40.668ZM139.691 39.4256C140.987 38.5807 141.937 37.3645 142.556 35.8302L140.702 35.0818C140.217 36.2835 139.511 37.1553 138.599 37.7504L139.691 39.4256ZM142.629 35.456V31.928H140.629V35.456H142.629ZM141.629 30.928H135.221V32.928H141.629V30.928ZM135.221 30.928C133.293 30.928 131.67 31.2706 130.564 32.1551L131.814 33.7169C132.388 33.2574 133.453 32.928 135.221 32.928V30.928ZM130.553 32.1641C129.479 33.0489 128.965 34.2712 128.965 35.708H130.965C130.965 34.7928 131.267 34.1671 131.825 33.7079L130.553 32.1641ZM128.965 35.708C128.965 37.2191 129.547 38.4878 130.713 39.4089L131.953 37.8391C131.295 37.3202 130.965 36.6449 130.965 35.708H128.965ZM130.726 39.419C131.875 40.2955 133.404 40.668 135.185 40.668V38.668C133.654 38.668 132.615 38.3445 131.94 37.829L130.726 39.419ZM150.845 14.288V13.288H149.845V14.288H150.845ZM152.645 14.288H153.645V13.288H152.645V14.288ZM152.645 41V42H153.645V41H152.645ZM150.845 41H149.845V42H150.845V41ZM150.845 15.288H152.645V13.288H150.845V15.288ZM151.645 14.288V41H153.645V14.288H151.645ZM152.645 40H150.845V42H152.645V40ZM151.845 41V14.288H149.845V41H151.845ZM176.108 32.036V33.036H177.039L177.105 32.1072L176.108 32.036ZM159.944 32.036V31.036H158.911L158.945 32.0688L159.944 32.036ZM161.06 35.96L160.204 36.4771L160.209 36.4851L161.06 35.96ZM163.868 38.588L163.399 39.4714L163.407 39.4752L163.868 38.588ZM171.284 38.876L171.67 39.7985L171.68 39.7941L171.284 38.876ZM173.912 36.896L174.663 36.2359L173.879 35.3432L173.133 36.2687L173.912 36.896ZM174.956 38.084L175.726 38.7223L176.271 38.0652L175.707 37.4239L174.956 38.084ZM171.86 40.352L171.47 39.431L171.464 39.4338L171.86 40.352ZM162.86 39.92L162.373 40.7935L162.373 40.7935L162.86 39.92ZM159.404 36.536L158.534 37.0291L158.54 37.0399L159.404 36.536ZM159.332 26.708L158.452 26.2322L158.45 26.2374L159.332 26.708ZM162.572 23.288L163.084 24.1468L163.084 24.1468L162.572 23.288ZM171.752 23.288L171.233 24.1428L171.242 24.1482L171.251 24.1534L171.752 23.288ZM174.956 26.636L174.074 27.1066L174.08 27.1179L174.956 26.636ZM176.144 31.532L177.141 31.6032L177.144 31.5677V31.532H176.144ZM163.616 24.548L164.095 25.4259L164.102 25.4217L164.11 25.4175L163.616 24.548ZM161.06 27.032L160.203 26.5175L160.199 26.5233L161.06 27.032ZM159.98 30.632L158.983 30.5608L158.906 31.632H159.98V30.632ZM174.38 30.632V31.632H175.435L175.379 30.5785L174.38 30.632ZM173.3 27.032L172.448 27.555L172.448 27.555L173.3 27.032ZM170.744 24.548L171.238 23.6785L171.238 23.6785L170.744 24.548ZM176.108 31.036H159.944V33.036H176.108V31.036ZM158.945 32.0688C158.998 33.6883 159.412 35.1659 160.204 36.4771L161.916 35.4429C161.316 34.4501 160.986 33.3117 160.943 32.0032L158.945 32.0688ZM160.209 36.4851C160.999 37.7651 162.067 38.7644 163.399 39.4713L164.337 37.7047C163.317 37.1636 162.513 36.4109 161.911 35.4349L160.209 36.4851ZM163.407 39.4752C164.763 40.1805 166.268 40.524 167.9 40.524V38.524C166.556 38.524 165.373 38.2435 164.329 37.7008L163.407 39.4752ZM167.9 40.524C169.244 40.524 170.505 40.2863 171.67 39.7984L170.898 37.9536C169.999 38.3297 169.004 38.524 167.9 38.524V40.524ZM171.68 39.7941C172.88 39.2761 173.889 38.5186 174.691 37.5233L173.133 36.2687C172.543 37.0014 171.8 37.5639 170.888 37.9579L171.68 39.7941ZM173.161 37.5561L174.205 38.7441L175.707 37.4239L174.663 36.2359L173.161 37.5561ZM174.186 37.4457C173.479 38.299 172.58 38.9616 171.47 39.431L172.25 41.273C173.636 40.6864 174.801 39.837 175.726 38.7223L174.186 37.4457ZM171.464 39.4338C170.375 39.9036 169.179 40.144 167.864 40.144V42.144C169.429 42.144 170.897 41.8564 172.256 41.2702L171.464 39.4338ZM167.864 40.144C166.142 40.144 164.645 39.7702 163.347 39.0465L162.373 40.7935C164.003 41.7018 165.842 42.144 167.864 42.144V40.144ZM163.347 39.0465C162.038 38.3172 161.017 37.3165 160.268 36.0321L158.54 37.0399C159.471 38.6355 160.754 39.8908 162.373 40.7935L163.347 39.0465ZM160.274 36.043C159.553 34.7703 159.18 33.2998 159.18 31.604H157.18C157.18 33.6042 157.623 35.4217 158.534 37.029L160.274 36.043ZM159.18 31.604C159.18 29.9245 159.532 28.4574 160.214 27.1786L158.45 26.2374C157.596 27.8386 157.18 29.6355 157.18 31.604H159.18ZM160.212 27.1838C160.922 25.8708 161.878 24.8663 163.084 24.1468L162.06 22.4292C160.53 23.3417 159.326 24.6172 158.452 26.2322L160.212 27.1838ZM163.084 24.1468C164.287 23.4297 165.643 23.064 167.18 23.064V21.064C165.309 21.064 163.593 21.5143 162.06 22.4292L163.084 24.1468ZM167.18 23.064C168.717 23.064 170.059 23.4297 171.233 24.1428L172.271 22.4332C170.758 21.5143 169.051 21.064 167.18 21.064V23.064ZM171.251 24.1534C172.452 24.8488 173.39 25.8256 174.074 27.1066L175.838 26.1654C174.986 24.5664 173.788 23.3112 172.253 22.4226L171.251 24.1534ZM174.08 27.1179C174.782 28.3946 175.144 29.8576 175.144 31.532H177.144C177.144 29.5584 176.714 27.7574 175.832 26.1541L174.08 27.1179ZM175.147 31.4608L175.111 31.9648L177.105 32.1072L177.141 31.6032L175.147 31.4608ZM167.18 22.648C165.702 22.648 164.342 22.9856 163.122 23.6785L164.11 25.4175C165.003 24.9104 166.018 24.648 167.18 24.648V22.648ZM163.137 23.6701C161.917 24.3355 160.938 25.2923 160.203 26.5175L161.918 27.5465C162.478 26.6117 163.203 25.9125 164.095 25.4259L163.137 23.6701ZM160.199 26.5233C159.489 27.7253 159.088 29.0778 158.983 30.5608L160.977 30.7032C161.064 29.4982 161.383 28.4507 161.921 27.5407L160.199 26.5233ZM159.98 31.632H174.38V29.632H159.98V31.632ZM175.379 30.5785C175.298 29.083 174.895 27.7189 174.152 26.509L172.448 27.555C173.001 28.4571 173.318 29.493 173.381 30.6855L175.379 30.5785ZM174.152 26.509C173.418 25.3121 172.444 24.3637 171.238 23.6785L170.25 25.4175C171.156 25.9323 171.886 26.6399 172.448 27.555L174.152 26.509ZM171.238 23.6785C170.019 22.9856 168.658 22.648 167.18 22.648V24.648C168.342 24.648 169.358 24.9104 170.25 25.4175L171.238 23.6785Z" fill="white"/>
<path fill-rule="evenodd" clip-rule="evenodd" d="M36.8138 6.53196L25.5001 0L0.818359 14.25V42.75L25.5001 57L37.5532 50.0411C36.133 48.973 34.8174 47.8006 33.6214 46.5376L25.5001 51.2265L5.81836 39.8632V17.1368L25.5001 5.7735L33.0208 10.1156C34.1691 8.82922 35.4385 7.63026 36.8138 6.53196Z" fill="white"/>
</svg>
