<svg width="675" height="675" viewBox="0 0 675 675" fill="none" xmlns="http://www.w3.org/2000/svg">
<g clip-path="url(#clip0)">
<path d="M284.006 295.222C281.302 292.084 276.566 291.735 273.427 294.438L170.932 382.806C167.795 385.511 167.444 390.246 170.149 393.385C171.632 395.106 173.726 395.988 175.833 395.988C177.567 395.988 179.31 395.389 180.727 394.169L283.223 305.8C286.36 303.095 286.711 298.36 284.006 295.222Z" fill="#E0DFD8"/>
<path d="M503.263 382.805L400.767 294.438C397.63 291.734 392.894 292.085 390.188 295.221C387.483 298.359 387.834 303.094 390.971 305.8L493.467 394.168C494.884 395.39 496.626 395.987 498.361 395.987C500.467 395.987 502.562 395.104 504.045 393.384C506.751 390.245 506.4 385.51 503.263 382.805Z" fill="#E0DFD8"/>
<path d="M562.225 373.56C558.102 373.309 554.531 376.447 554.275 380.581C553.281 396.616 547.213 411.563 536.726 423.807C510.14 454.851 462.723 457.255 431.974 430.894C405.851 408.498 385.173 381.199 370.414 351.228C355.191 320.314 346.116 284.65 344.615 263.631C344.448 262.041 345.639 260.62 347.237 260.518C408.659 256.593 475.815 275.472 528.309 319.772C537.554 327.572 544.784 337.612 549.221 348.805C550.747 352.655 555.106 354.539 558.958 353.014C562.809 351.488 564.693 347.128 563.166 343.277C557.821 329.791 549.113 317.699 537.984 308.307C505.461 280.859 467.417 262.011 424.912 252.287C412.536 249.456 400.876 247.673 390.331 246.587C410.95 218.127 405.56 178.155 377.76 156.376C392.482 124.301 421.809 101.824 457.038 95.897C461.123 95.21 463.877 91.341 463.19 87.256C462.503 83.171 458.635 80.415 454.549 81.104C434.209 84.526 414.937 93.108 398.815 105.92C384.416 117.364 372.792 131.992 364.888 148.507C362.307 147.31 359.629 146.26 356.854 145.387C352.901 144.144 348.692 146.338 347.447 150.289C346.202 154.24 348.398 158.451 352.349 159.696C356.494 161.001 360.368 162.798 363.928 165.003C364.104 165.139 364.281 165.268 364.46 165.383C364.616 165.483 364.781 165.558 364.942 165.645C392.418 183.582 395.695 222.66 371.788 245.075H302.412C274.439 218.848 284.464 171.465 321.85 159.695C325.801 158.451 327.996 154.24 326.752 150.288C325.508 146.337 321.298 144.141 317.346 145.386C314.109 146.405 311.002 147.661 308.03 149.118C300.123 132.352 288.392 117.503 273.816 105.919C257.694 93.106 238.422 84.524 218.082 81.103C214 80.415 210.129 83.17 209.442 87.255C208.754 91.339 211.509 95.208 215.593 95.896C251.161 101.88 280.723 124.732 295.301 157.302C280.437 169.496 271.376 187.891 271.376 208.083C271.376 222.073 275.827 235.487 283.87 246.586C230.256 252.106 179.005 272.193 136.216 308.307C73.884 360.906 109.981 464.008 193.186 464.008C212.45 464.008 230.947 457.971 246.401 446.685C244.13 481.958 261.399 516.015 292.428 534.888C316.502 549.53 319.788 552.389 329.6 554.082V585.497C329.6 589.64 332.958 592.997 337.1 592.997C341.242 592.997 344.6 589.64 344.6 585.497V553.919C353.788 552.112 356.102 549.925 384.972 532.365C414.964 514.122 431.159 480.619 427.488 446.451C464.551 473.761 517.736 469.039 548.121 433.562C560.746 418.822 568.051 400.821 569.249 381.505C569.503 377.376 566.359 373.816 562.225 373.56ZM297.681 155.236C297.616 155.345 297.568 155.461 297.509 155.573C297.503 155.577 297.498 155.581 297.492 155.586C297.553 155.468 297.612 155.351 297.681 155.236ZM380.974 397.762H293.223C301.941 385.844 309.205 373.816 315.255 362.044H358.941C364.992 373.816 372.255 385.844 380.974 397.762ZM351.795 347.043H322.401C329.016 332.011 333.737 317.696 337.098 304.93C340.459 317.696 345.18 332.012 351.795 347.043ZM242.222 430.895C227.206 443.768 207.989 450.139 188.101 448.844C122.031 444.53 95.764 362.072 145.888 319.774C191.055 281.658 248.334 260.081 315.224 260.081C327.713 260.241 328.086 260.516 328.93 261.516C329.834 262.589 329.605 263.504 329.362 265.615C322.246 327.236 291.495 388.653 242.222 430.895ZM377.174 519.552L350.437 535.815C341.917 540.997 331.33 540.998 322.809 535.814C298.416 520.977 295.808 519.722 289.379 514.199H384.851C382.43 516.12 379.872 517.912 377.174 519.552ZM399.092 499.198H275.859C268.38 488.506 263.642 476.333 261.933 463.48H412.588C411.257 476.3 406.594 488.678 399.092 499.198ZM261.328 448.479C261.69 441.496 262.785 436.554 264.051 431.272C270.296 425.216 276.064 419.027 281.388 412.762H392.807C397.78 418.614 403.135 424.402 408.91 430.075C410.727 437.651 411.939 441.874 412.611 448.479H261.328Z" fill="#E0DFD8"/>
</g>
<circle cx="337.5" cy="337.5" r="332.5" stroke="#E0DFD8" stroke-width="10"/>
<defs>
<clipPath id="clip0">
<rect width="512" height="512" fill="white" transform="translate(81 81)"/>
</clipPath>
</defs>
</svg>
