<svg width="45" height="71" viewBox="0 0 45 71" fill="none" xmlns="http://www.w3.org/2000/svg">
<path d="M40.6139 31.4802L24.2732 2.03209C24.0361 1.6555 23.7229 1.3485 23.3597 1.13668C22.9965 0.92485 22.5939 0.814331 22.1853 0.814331C21.7767 0.814331 21.374 0.92485 21.0109 1.13668C20.6477 1.3485 20.3345 1.6555 20.0974 2.03209L3.68276 31.6197C1.40232 35.7827 0.132041 40.5525 0 45.4483C0 52.1072 2.33737 58.4933 6.49792 63.2019C10.6585 67.9104 16.3014 70.5557 22.1853 70.5557C28.0692 70.5557 33.7121 67.9104 37.8727 63.2019C42.0332 58.4933 44.3706 52.1072 44.3706 45.4483C44.2289 40.4988 42.9328 35.6798 40.6139 31.4802ZM22.1853 64.9762C17.6107 64.9696 13.2252 62.9101 9.99049 59.2493C6.75578 55.5885 4.93593 50.6254 4.93006 45.4483C5.06109 41.5471 6.09653 37.7536 7.93247 34.4485L10.2373 30.2918L35.07 58.3953C33.4572 60.4633 31.4744 62.1197 29.253 63.2547C27.0317 64.3898 24.6225 64.9775 22.1853 64.979V64.9762Z" fill="black"/>
</svg>
