<svg width="49" height="83" viewBox="0 0 49 83" fill="none" xmlns="http://www.w3.org/2000/svg">
<path d="M38.2143 45.4971V12.5267C38.2143 9.42039 36.7694 6.4413 34.1975 4.24481C31.6255 2.04831 28.1373 0.814331 24.5 0.814331C20.8627 0.814331 17.3745 2.04831 14.8025 4.24481C12.2306 6.4413 10.7857 9.42039 10.7857 12.5267V45.4971C6.59262 47.9906 3.44076 51.5618 1.78888 55.6911C0.136992 59.8204 0.071299 64.2922 1.60136 68.4555C3.13142 72.6189 6.17738 76.2566 10.2959 78.8392C14.4144 81.4217 19.3905 82.8143 24.5 82.8143C29.6095 82.8143 34.5856 81.4217 38.7041 78.8392C42.8226 76.2566 45.8686 72.6189 47.3986 68.4555C48.9287 64.2922 48.863 59.8204 47.2111 55.6911C45.5592 51.5618 42.4074 47.9906 38.2143 45.4971ZM24.5 6.67052C26.3186 6.67052 28.0628 7.28751 29.3487 8.38576C30.6347 9.48401 31.3571 10.9736 31.3571 12.5267V33.0234H17.6429V12.5267C17.6429 10.9736 18.3653 9.48401 19.6513 8.38576C20.9372 7.28751 22.6814 6.67052 24.5 6.67052ZM24.5 76.9448C20.7264 76.9446 17.0583 75.8811 14.0646 73.9192C11.0708 71.9573 8.91873 69.2065 7.94204 66.0936C6.96535 62.9807 7.21865 59.6795 8.66264 56.702C10.1066 53.7245 12.6606 51.2372 15.9286 49.6257L17.6429 48.8058V38.8796H31.3571V48.8058L33.0714 49.6257C36.3394 51.2372 38.8934 53.7245 40.3374 56.702C41.7814 59.6795 42.0346 62.9807 41.058 66.0936C40.0813 69.2065 37.9292 71.9573 34.9354 73.9192C31.9417 75.8811 28.2736 76.9446 24.5 76.9448Z" fill="black"/>
</svg>
