<svg width="44" height="65" viewBox="0 0 44 65" fill="none" xmlns="http://www.w3.org/2000/svg">
<path d="M27.1873 4.12598H27.2498H27.1873ZM27.1873 4.12598L22.6873 28.1836L39.0623 28.2471L16.8123 60.874L21.3123 34.4043L4.93726 34.3408L27.1873 4.12598ZM27.1873 0.0634766H26.8748C26.5414 0.105794 26.2498 0.17985 25.9998 0.285645C25.7498 0.391439 25.4685 0.55013 25.156 0.761719C24.8435 0.973307 24.5623 1.22721 24.3123 1.52344C24.2706 1.56576 24.2393 1.60807 24.2185 1.65039C24.1977 1.69271 24.1664 1.73503 24.1248 1.77734L1.68726 31.8652C0.728929 33.2194 0.624762 34.637 1.37476 36.1182C1.49976 36.3721 1.65601 36.6154 1.84351 36.8481C2.03101 37.0809 2.23935 37.2925 2.46851 37.4829C2.69768 37.6733 2.94768 37.832 3.21851 37.959C3.48935 38.0859 3.7706 38.1812 4.06226 38.2446C4.35393 38.3081 4.64559 38.3398 4.93726 38.3398L16.4998 38.4033L12.8123 60.1758C12.6456 61.1068 12.7914 61.9849 13.2498 62.8101C13.7081 63.6353 14.3539 64.2383 15.1873 64.6191C15.4373 64.7461 15.6977 64.8307 15.9685 64.873C16.2393 64.9154 16.5206 64.9365 16.8123 64.9365C18.0206 64.9365 19.0414 64.3864 19.8748 63.2861L42.3123 30.6592C43.2706 29.305 43.3748 27.8874 42.6248 26.4062C41.8748 24.9251 40.6873 24.1846 39.0623 24.1846H27.4998L31.1248 5.07812C31.1664 4.90885 31.1977 4.75016 31.2185 4.60205C31.2393 4.45394 31.2498 4.29525 31.2498 4.12598C31.2498 3.74512 31.1977 3.38542 31.0935 3.04688C30.9893 2.70833 30.8539 2.39095 30.6873 2.09473C30.5206 1.7985 30.3227 1.52344 30.0935 1.26953C29.8643 1.01562 29.6039 0.804036 29.3123 0.634766C29.0206 0.465495 28.7081 0.327962 28.3748 0.222168C28.0414 0.116374 27.7081 0.0634766 27.3748 0.0634766H27.1873Z" fill="black"/>
</svg>
