<svg width="64" height="71" viewBox="0 0 64 71" fill="none" xmlns="http://www.w3.org/2000/svg">
<path d="M31.8311 0C35.2079 0 38.4465 1.65795 40.8342 4.60912C43.222 7.56029 44.5635 11.5629 44.5635 15.7365C44.5635 18.6084 43.9587 21.2836 42.8446 23.6048H50.9297C53.9537 23.6048 56.5001 26.2406 57.1368 29.742C63.5348 61.2544 63.6621 62.0806 63.6621 62.9461C63.6621 65.0329 62.9914 67.0342 61.7975 68.5098C60.6036 69.9853 58.9843 70.8143 57.2959 70.8143H6.36621C4.67779 70.8143 3.05852 69.9853 1.86462 68.5098C0.670724 67.0342 0 65.0329 0 62.9461C0 62.0806 0.127325 61.2544 6.52537 29.742C7.16199 26.2406 9.70847 23.6048 12.7324 23.6048H20.8175C19.6796 21.2223 19.0856 18.5031 19.0986 15.7365C19.0986 11.5629 20.4401 7.56029 22.8279 4.60912C25.2157 1.65795 28.4542 0 31.8311 0ZM31.8311 7.86826C30.1426 7.86826 28.5234 8.69723 27.3295 10.1728C26.1356 11.6484 25.4648 13.6497 25.4648 15.7365C25.4648 17.8233 26.1356 19.8246 27.3295 21.3002C28.5234 22.7758 30.1426 23.6048 31.8311 23.6048C33.5195 23.6048 35.1388 22.7758 36.3327 21.3002C37.5266 19.8246 38.1973 17.8233 38.1973 15.7365C38.1973 13.6497 37.5266 11.6484 36.3327 10.1728C35.1388 8.69723 33.5195 7.86826 31.8311 7.86826Z" fill="black"/>
</svg>
